<svg xmlns="http://www.w3.org/2000/svg" xmlns:xlink="http://www.w3.org/1999/xlink" viewBox="0 0 100 100"><defs><style>.cls-1{isolation:isolate;}.cls-2{fill:url(#linear-gradient);}.cls-3{fill:#e8e9ea;opacity:0.17;mix-blend-mode:overlay;}.cls-4{fill:url(#linear-gradient-2);}.cls-5{fill:url(#linear-gradient-3);}.cls-6{fill:url(#linear-gradient-4);}</style><linearGradient id="linear-gradient" x1="41.03" y1="10.3" x2="6" y2="40.39" gradientUnits="userSpaceOnUse"><stop offset="0" stop-color="#fff"/><stop offset="0.01" stop-color="#f8f8f8"/><stop offset="0.08" stop-color="#d0d0d0"/><stop offset="0.15" stop-color="#adadad"/><stop offset="0.23" stop-color="#8f8f8f"/><stop offset="0.32" stop-color="#777"/><stop offset="0.42" stop-color="#646464"/><stop offset="0.54" stop-color="#575757"/><stop offset="0.69" stop-color="#4f4f4f"/><stop offset="1" stop-color="#4d4d4d"/></linearGradient><linearGradient id="linear-gradient-2" x1="92.03" y1="61.3" x2="57" y2="91.39" xlink:href="#linear-gradient"/><linearGradient id="linear-gradient-3" x1="92.03" y1="10.3" x2="57" y2="40.39" gradientUnits="userSpaceOnUse"><stop offset="0" stop-color="#f7931e"/><stop offset="0.07" stop-color="#cf8329"/><stop offset="0.14" stop-color="#ad7433"/><stop offset="0.22" stop-color="#8f683b"/><stop offset="0.31" stop-color="#775e41"/><stop offset="0.41" stop-color="#645647"/><stop offset="0.53" stop-color="#57514a"/><stop offset="0.69" stop-color="#4f4e4c"/><stop offset="1" stop-color="#4d4d4d"/></linearGradient><linearGradient id="linear-gradient-4" x1="41.03" y1="61.3" x2="6" y2="91.39" gradientUnits="userSpaceOnUse"><stop offset="0" stop-color="#f7931e"/><stop offset="0.04" stop-color="#de8721"/><stop offset="0.1" stop-color="#b67325"/><stop offset="0.18" stop-color="#936229"/><stop offset="0.25" stop-color="#75532c"/><stop offset="0.34" stop-color="#5d472f"/><stop offset="0.44" stop-color="#4a3e31"/><stop offset="0.55" stop-color="#3d3832"/><stop offset="0.7" stop-color="#353433"/><stop offset="1" stop-color="#333"/></linearGradient></defs><title>memory-logo</title><g class="cls-1"><g id="Layer_1" data-name="Layer 1"><rect class="cls-2" x="0.49" y="0.49" width="48.02" height="48.02" rx="3.48"/><path d="M45,1a3,3,0,0,1,3,3V45a3,3,0,0,1-3,3H4a3,3,0,0,1-3-3V4A3,3,0,0,1,4,1H45m0-1H4A4,4,0,0,0,0,4V45a4,4,0,0,0,4,4H45a4,4,0,0,0,4-4V4a4,4,0,0,0-4-4Z"/><path class="cls-3" d="M43.5,2,5.3,1.94A1.33,1.33,0,0,0,4,3.56C5.48,10,18.53,37.45,44.82,44.93a1.33,1.33,0,0,0,1.68-1.29V4.71a1.28,1.28,0,0,0-.17-.64A3.52,3.52,0,0,0,43.5,2Z"/><rect class="cls-4" x="51.49" y="51.49" width="48.02" height="48.02" rx="3.48"/><path d="M96,52a3,3,0,0,1,3,3V96a3,3,0,0,1-3,3H55a3,3,0,0,1-3-3V55a3,3,0,0,1,3-3H96m0-1H55a4,4,0,0,0-4,4V96a4,4,0,0,0,4,4H96a4,4,0,0,0,4-4V55a4,4,0,0,0-4-4Z"/><path class="cls-3" d="M94.5,53l-38.2-.06A1.33,1.33,0,0,0,55,54.56C56.48,61,69.53,88.45,95.82,95.93a1.33,1.33,0,0,0,1.68-1.29V55.71a1.28,1.28,0,0,0-.17-.64A3.52,3.52,0,0,0,94.5,53Z"/><rect class="cls-5" x="51.49" y="0.49" width="48.02" height="48.02" rx="3.48"/><path d="M96,1a3,3,0,0,1,3,3V45a3,3,0,0,1-3,3H55a3,3,0,0,1-3-3V4a3,3,0,0,1,3-3H96m0-1H55a4,4,0,0,0-4,4V45a4,4,0,0,0,4,4H96a4,4,0,0,0,4-4V4a4,4,0,0,0-4-4Z"/><path class="cls-3" d="M94.5,2,56.3,1.94A1.33,1.33,0,0,0,55,3.56C56.48,10,69.53,37.45,95.82,44.93a1.33,1.33,0,0,0,1.68-1.29V4.71a1.28,1.28,0,0,0-.17-.64A3.52,3.52,0,0,0,94.5,2Z"/><rect class="cls-6" x="0.49" y="51.49" width="48.02" height="48.02" rx="3.48"/><path d="M45,52a3,3,0,0,1,3,3V96a3,3,0,0,1-3,3H4a3,3,0,0,1-3-3V55a3,3,0,0,1,3-3H45m0-1H4a4,4,0,0,0-4,4V96a4,4,0,0,0,4,4H45a4,4,0,0,0,4-4V55a4,4,0,0,0-4-4Z"/><path class="cls-3" d="M43.5,53,5.3,52.94A1.33,1.33,0,0,0,4,54.56C5.48,61,18.53,88.45,44.82,95.93a1.33,1.33,0,0,0,1.68-1.29V55.71a1.28,1.28,0,0,0-.17-.64A3.52,3.52,0,0,0,43.5,53Z"/></g></g></svg>