<svg xmlns="http://www.w3.org/2000/svg" viewBox="0 0 107.26 121.58"><defs><style>.cls-1{fill:none;stroke-width:3px;}.cls-1,.cls-3,.cls-4{stroke:#000;stroke-miterlimit:10;}.cls-2{fill:#282828;}.cls-3{fill:#eaea54;stroke-width:0.19px;}.cls-4{fill:#d80b0b;stroke-width:0.1px;}</style></defs><title>mine_1</title><g id="Layer_2" data-name="Layer 2"><g id="Layer_3" data-name="Layer 3"><path class="cls-1" d="M19.44,21.44c15.69-4.33,21.35,12.94,21.35,12.94"/><path class="cls-2" d="M62.78,121.08A44,44,0,0,1,32.35,45.25l.27-.25-3.06-6.25L52,27.78l2.92,6,.37-.06a44,44,0,1,1,7.46,87.37Z"/><path d="M51.8,28.45l2.54,5.2.33.68.74-.13a43.72,43.72,0,0,1,7.31-.62,43.48,43.48,0,1,1-30,12l.53-.5-.32-.66L30.23,39,35,36.64l5.53-2.7L51.8,28.45m.46-1.34L40.12,33,28.89,38.52,32,44.89A44.51,44.51,0,1,0,62.72,32.58a45,45,0,0,0-7.48.63c-1-2-2-4.07-3-6.1Z"/><path class="cls-3" d="M9.61,1.91c8.51,10.31,10.5,10.3,14.6-1.27-.57,12.92,1,14.28,12,10.35C27,18.7,27.1,20.76,37.52,27.21,25.94,24.36,24.69,25.9,27.09,38.59c-6-11-8-11-14.92-.24,3.42-12.07,1.88-13.43-10.56-10.62,10.63-6.59,10.53-8.65-1-14.7C13.3,15.48,14.55,13.94,9.61,1.91Z"/><path class="cls-4" d="M8.91,17.41c6.76.38,7.43-.35,4.47-5.73,4.67,4.55,5.7,4.45,8-.88-.22,5.94.59,6.6,6.55,5-5,3.25-4.84,4.22.75,7.62-6.16-1.52-6.82-.8-5.14,5.34-3.39-5.31-4.43-5.21-7.58.26,1.12-6.08.31-6.74-5.87-4.59C15.27,20.64,15.11,19.67,8.91,17.41Z"/></g></g></svg>