<svg id="Layer_1" data-name="Layer 1" xmlns="http://www.w3.org/2000/svg" viewBox="0 0 60 50"><defs><style>.cls-1{fill:#ffe600;}</style></defs><title>fav</title><polygon class="cls-1" points="18.17 31.16 6.36 20.54 22.58 18.23 29.87 4.21 37.34 18.14 53.59 20.24 41.92 31.01 44.81 46.24 30.09 39.12 15.46 46.42 18.17 31.16"/><path d="M29.89,7.42l5.76,10.74.73,1.36,1.53.2,12.3,1.59-8.7,8-1.22,1.13.31,1.63,2.18,11.49-11.37-5.5-1.33-.64-1.32.66-11.3,5.64,2-11.51.29-1.64-1.24-1.12-8.8-7.91L22,19.82l1.53-.22.71-1.36L29.89,7.42m0-6.42L21.61,16.85,3,19.5,16.54,31.71,13.47,49.1,30.1,40.79l16.74,8.1L43.55,31.54,57,19.16,38.3,16.75,29.85,1Z"/></svg>